<svg xmlns="http://www.w3.org/2000/svg" viewBox="0 0 280.18 60.09"><defs><style>.cls-1{fill:#8d1cf5;}.cls-2{fill:#f6921e;}.cls-3,.cls-4{fill:none;stroke:#f6921e;stroke-miterlimit:10;}.cls-4{stroke-width:0.25px;}</style></defs><g id="Layer_2" data-name="Layer 2"><g id="Layer_1-2" data-name="Layer 1"><polygon class="cls-1" points="48.46 37.56 38.32 47.42 0 8.01 20 8.29 48.46 37.56"/><rect class="cls-1" x="43.72" y="43.02" width="14.14" height="14.14" transform="translate(-20.54 49.62) rotate(-44.23)"/><polygon class="cls-1" points="102.43 0.31 102.29 9.87 102.11 22.75 95.76 16.22 63.32 47.77 53.46 37.63 85.9 6.08 83.44 3.55 79.98 0 86.99 0.09 91.99 0.16 102.43 0.31"/><path class="cls-2" d="M107.18,45.85a14,14,0,1,0-2.72,8.28l-4-4a8.5,8.5,0,0,1-15.45-1.82H107A14.71,14.71,0,0,0,107.18,45.85Zm-21.74-3.5a8.49,8.49,0,0,1,15.48,0Z"/><path class="cls-2" d="M135.68,41.58V58.35h-5.5V44a6.27,6.27,0,0,0-3.65-5.82,6.06,6.06,0,0,0-2.35-.48c-4.14,0-7.5,4.34-7.5,9.69v11h-5.5v-26h5.5v5.53c2.19-3.67,5.63-6,9.5-6a9.6,9.6,0,0,1,4,.88l.07,0A9.67,9.67,0,0,1,135.68,41.58Z"/><path class="cls-2" d="M174.18,22.35V47.53a8.61,8.61,0,0,1-1.09,4.24,16,16,0,0,1-27.67.26,9.44,9.44,0,0,1-1.24-4.8V22.35h6V43.51a9.72,9.72,0,0,0,8.68,9.81c.27,0,.54,0,.82,0h.11a8.64,8.64,0,0,0,8.39-8.72V22.35Z"/><path class="cls-2" d="M188.68,51.73a28.59,28.59,0,0,0,4.14,0h15.61c.47,0,2.91-.34,3.25,0v7h-30v-11c0-7.37,5.5-9.87,14.5-9.87,2.58,0,5.61.5,7.44-2a5,5,0,0,0,1.06-3c0-3.39-3.58-6.13-8-6.13s-7.93,2.69-8,6h-7c.07-6.3,6.76-11.4,15-11.4s15,5.15,15,11.5c0,3.95-2.44,7.12-5.76,9a18.81,18.81,0,0,1-5.37,2,32.8,32.8,0,0,1-6.86.29,8.9,8.9,0,0,0-4.44,1.22,1.24,1.24,0,0,0-.45.37,1.26,1.26,0,0,0-.13.67C188.68,48.17,188.77,50,188.68,51.73Z"/><path class="cls-3" d="M188.68,51.75v.07l-.05-.07Z"/><path class="cls-3" d="M188.68,51.75v.07l-.05-.07Z"/><polyline class="cls-4" points="249.06 52.46 249.06 42.85 249.06 36.85 246.18 36.85 233.06 36.85 233.06 42.85"/><polyline class="cls-4" points="233.06 42.85 233.06 36.85 243.06 36.85 246.18 36.85"/><path class="cls-2" d="M249.18,36.85V52.46a18.77,18.77,0,0,1-14.88,7.39,19.26,19.26,0,0,1-19-19.5,19.26,19.26,0,0,1,19-19.5A18.65,18.65,0,0,1,248.09,27l-4.76,4.76A12.5,12.5,0,1,0,233.18,52.8c.37,0,.74.05,1.12.05a12.5,12.5,0,0,0,8.88-3.7v-6.3h-10v-6Z"/><path class="cls-2" d="M280.18,45.85a13.51,13.51,0,1,1-27,0,13.51,13.51,0,1,1,27,0Zm-13.5-7.78a7.79,7.79,0,1,0,7.5,7.78A7.64,7.64,0,0,0,266.68,38.07Z"/></g></g></svg>